<?xml version="1.0" encoding="UTF-8" standalone="no"?>
<svg width="929px" height="406px" viewBox="0 0 929 406" version="1.1" xmlns="http://www.w3.org/2000/svg" xmlns:xlink="http://www.w3.org/1999/xlink">
    <!-- Generator: Sketch 48.1 (47250) - http://www.bohemiancoding.com/sketch -->
    <title>Shape</title>
    <desc>Created with Sketch.</desc>
    <defs></defs>
    <g id="petrovsky-retarget" stroke="none" stroke-width="1" fill="none" fill-rule="evenodd" transform="translate(-256.000000, -152.000000)">
        <g id="banner" transform="translate(0.000000, -19.000000)" fill="#FFFFFF" fill-rule="nonzero">
            <g id="form" transform="translate(183.000000, 0.000000)">
                <path d="M53.7757993,483.686001 C54.7621237,484.173367 940.353615,658.330017 941.422133,658.330017 C947.012127,658.086334 952.43609,654.674772 953.504608,649.313747 L956.956743,632.255939 C958.025261,626.813686 954.408738,621.615116 949.312729,619.259514 C932.216438,611.299203 922.10579,592.616842 925.969716,573.447115 C929.832821,554.277388 946.518143,540.874824 965.422695,540.062547 C971.011867,539.818865 976.436651,536.407303 977.50517,531.046277 L980.053174,518.537218 L980.958127,513.907242 C982.026645,508.464989 978.4093,503.266419 973.314113,500.910816 C956.217,492.950506 946.107174,474.268145 949.9711,455.09923 C953.834204,435.92869 970.519527,422.526127 989.424079,421.71385 C995.013251,421.470167 1000.43804,418.058606 1001.50655,412.69758 L1004.95869,395.639772 C1006.02721,390.197519 1002.40986,384.998949 997.313853,382.643347 C980.217562,374.683036 970.107736,356.000675 973.971662,336.830948 C977.834766,317.661221 994.520089,304.258657 1013.42464,303.446381 C1019.01381,303.202698 1024.43778,299.791136 1025.50712,294.430111 L1029.3694,275.504066 C1030.43874,270.061813 1026.90359,264.782016 1021.39743,263.726056 C1021.39743,263.726056 132.682578,89 132.025029,89 C127.257794,89 123.065915,92.330334 122.07959,97.0415381 L118.216486,115.967582 C117.147968,121.409835 120.764491,126.608406 125.860501,128.964008 C142.956791,136.924318 153.066617,155.606679 149.203513,174.776407 C145.340409,193.946134 128.655087,207.348697 109.750535,208.160974 C104.160541,208.404657 98.736578,211.816218 97.6680598,217.177244 L94.2159242,234.235052 C93.147406,239.677305 96.7639291,244.875875 101.859939,247.231477 C118.956229,255.191788 129.066877,273.874149 125.202951,293.043876 C121.339847,312.213603 104.654525,325.616167 85.7499726,326.428443 C80.1608006,326.672126 74.7360161,330.083688 73.6674979,335.444713 L70.2153623,352.502522 C69.1468441,357.944775 72.7641891,363.143345 77.8593769,365.498947 C94.9564895,373.459257 105.066315,392.141619 101.202389,411.311346 C97.339285,430.481885 80.6539628,443.884449 61.7494106,444.696725 C56.1602387,444.940408 50.7354541,448.35197 49.6669359,453.712995 L46.2148003,470.770803 C45.0632665,476.213056 48.6789676,481.330399 53.7757993,483.686001 Z M871.651539,327.482795 C873.87077,316.517061 884.720339,309.369027 895.816489,311.562174 C906.912639,313.755321 914.145685,324.477372 911.926455,335.443105 L884.802532,468.818919 L868.11721,551.021309 C866.144561,560.6874 857.596416,567.34888 847.979752,567.34888 C846.663831,567.34888 845.26736,567.186425 843.952261,566.942742 C832.856111,564.749595 825.623065,554.027544 827.842295,543.061811 L846.500266,451.355785 L871.651539,327.482795 Z M231.067622,201.988484 C233.286852,191.02275 244.136421,183.874716 255.232571,186.067863 C266.328721,188.26101 273.561767,198.983061 271.342537,209.948795 L261.972455,256.004876 L251.370289,308.23426 L242.822143,350.310187 L227.616308,425.526998 C225.644481,435.193089 217.095514,441.85457 207.47885,441.85457 C206.163751,441.85457 204.766458,441.692114 203.45218,441.448431 C202.876825,441.366391 202.301469,441.203936 201.808306,441.042293 C191.616287,438.117285 185.28655,427.963828 187.424408,417.5675 L190.464753,402.377928 L198.437542,363.063742 L231.067622,201.988484 Z" id="Shape" transform="translate(537.779999, 373.665009) rotate(-11.000000) translate(-537.779999, -373.665009) "></path>
            </g>
        </g>
    </g>
</svg>