<?xml version="1.0" encoding="UTF-8" standalone="no"?>
<svg width="8px" height="18px" viewBox="0 0 8 18" version="1.1" xmlns="http://www.w3.org/2000/svg" xmlns:xlink="http://www.w3.org/1999/xlink">
    <!-- Generator: Sketch 48.1 (47250) - http://www.bohemiancoding.com/sketch -->
    <title>Shape</title>
    <desc>Created with Sketch.</desc>
    <defs></defs>
    <g id="Mobile" stroke="none" stroke-width="1" fill="none" fill-rule="evenodd" transform="translate(-211.000000, -18.000000)">
        <g id="header-mobile" fill="#000000" fill-rule="nonzero">
            <g id="phone" transform="translate(205.000000, 17.000000)">
                <g id="telephone" transform="translate(10.606602, 10.606602) rotate(45.000000) translate(-10.606602, -10.606602) translate(3.106602, 3.106602)">
                    <path d="M2.84184455,9.32202798 C4.23028161,10.9754675 5.90165648,12.2772968 7.80929899,13.1984573 C8.53560325,13.5413499 9.50692581,13.9481715 10.58909,14.0179124 C10.6561783,14.0208183 10.7203498,14.0237241 10.7874381,14.0237241 C11.5137424,14.0237241 12.0971193,13.7738194 12.5725715,13.2594806 C12.5754884,13.2565747 12.5813222,13.250763 12.584239,13.2449512 C12.7534183,13.0415404 12.9459327,12.8584706 13.1471978,12.6637774 C13.2842913,12.5330133 13.4243018,12.3964375 13.5584785,12.2569557 C14.1797749,11.6118528 14.1797749,10.7923977 13.5526447,10.1676359 L11.7995971,8.42120857 C11.5020749,8.11318645 11.1462149,7.95045778 10.7728537,7.95045778 C10.3994925,7.95045778 10.0407157,8.11318645 9.73444281,8.4183027 L8.69019813,9.45860383 C8.59394094,9.40339231 8.49476687,9.35399254 8.40142656,9.30749864 C8.28475118,9.24938125 8.17682645,9.19416974 8.08056926,9.13314649 C7.12966488,8.53163159 6.26626705,7.74704694 5.44078871,6.73871038 C5.02367422,6.21274807 4.7436533,5.77105598 4.54822203,5.32064627 C4.82240918,5.0736474 5.07909502,4.81502505 5.32703021,4.56221444 C5.41453675,4.4721325 5.50496017,4.38205056 5.59538359,4.29196862 C5.91040713,3.97813476 6.07958643,3.61490112 6.07958643,3.24585575 C6.07958643,2.87681038 5.91332401,2.51357675 5.59538359,2.19974289 L4.72615199,1.3337939 C4.62406103,1.23208849 4.52780384,1.13328894 4.42862976,1.03158352 C4.23611538,0.833984423 4.03485035,0.630573588 3.83650219,0.447503837 C3.53606308,0.154011061 3.18312005,0 2.80975882,0 C2.43931448,0 2.08345456,0.154011061 1.77134791,0.450409706 L0.680433081,1.53720474 C0.283736779,1.93240293 0.0591366662,2.41187133 0.012466513,2.96689232 C-0.042954294,3.66139503 0.0853886274,4.39948577 0.417913469,5.29158758 C0.92836827,6.67187539 1.6984258,7.95336365 2.84184455,9.32202798 Z M0.72418635,3.02791557 C0.759188965,2.64143499 0.907950078,2.31888352 1.187971,2.03992009 L2.27305206,0.958936794 C2.44223137,0.796208126 2.62891198,0.711937922 2.80975882,0.711937922 C2.98768878,0.711937922 3.16853563,0.796208126 3.33479805,0.964748532 C3.53022931,1.14491241 3.71399304,1.3337939 3.91234119,1.53429887 C4.01151527,1.63600429 4.11360623,1.7377097 4.21569719,1.84232099 L5.08492879,2.70826997 C5.26577564,2.88843386 5.35911594,3.07150361 5.35911594,3.25166749 C5.35911594,3.43183137 5.26577564,3.61490112 5.08492879,3.79506501 C4.99450537,3.88514695 4.90408195,3.97813476 4.81365853,4.0682167 C4.54238826,4.34136839 4.2886193,4.59999074 4.00859838,4.84698961 C4.00276462,4.85280135 3.99984773,4.85570722 3.99401396,4.86151896 C3.75191254,5.10270609 3.78983204,5.33226975 3.84816973,5.50662189 C3.85108662,5.5153395 3.8540035,5.52115124 3.85692039,5.52986884 C4.0815205,6.06745462 4.39362715,6.57888758 4.88074687,7.18912008 C5.75581225,8.26429164 6.67754777,9.09827606 7.69262361,9.74047313 C7.81804964,9.82183746 7.95222633,9.88576658 8.07765237,9.9496957 C8.19432775,10.0078131 8.30225248,10.0630246 8.39850967,10.1240478 C8.41017721,10.1298596 8.41892787,10.1356713 8.4305954,10.1414831 C8.5268526,10.1908828 8.6201929,10.2141298 8.71353321,10.2141298 C8.94688397,10.2141298 9.09856197,10.0659305 9.14814901,10.0165307 L10.2390638,8.92973566 C10.4082431,8.76119525 10.5920069,8.67111331 10.7728537,8.67111331 C10.9945369,8.67111331 11.1753838,8.80768916 11.2891423,8.92973566 L13.0480237,10.6790688 C13.3980498,11.0277731 13.395133,11.4055361 13.039273,11.7745815 C12.9167639,11.9053456 12.788421,12.030298 12.6513274,12.1610621 C12.4471455,12.3586612 12.2342129,12.562072 12.0416985,12.7916357 C11.7062568,13.1519634 11.3066436,13.3205038 10.790355,13.3205038 C10.740768,13.3205038 10.6882641,13.317598 10.638677,13.3146921 C9.68193889,13.2536688 8.79228909,12.8817176 8.12432252,12.5649779 C6.31002032,11.6903113 4.71740134,10.4495052 3.39605262,8.87452414 C2.30805468,7.56978893 1.57591665,6.35513566 1.09171381,5.05330631 C0.791274695,4.25419232 0.677516197,3.61199526 0.72418635,3.02791557 Z" id="Shape"></path>
                </g>
            </g>
        </g>
    </g>
</svg>